<svg width="124" height="124" viewBox="0 0 124 124" fill="none" xmlns="http://www.w3.org/2000/svg">
<path d="M36.4594 9.10912C36.4194 9.16865 36.3595 9.35713 36.3095 9.53569C36.2696 9.70434 36.1597 10.0416 36.0698 10.2698C35.98 10.5277 35.8801 11.3015 35.8202 12.1546C35.7003 13.9899 35.0811 17.1941 34.7815 17.5215C34.6916 17.6207 34.5518 17.9183 34.4619 18.1861C34.372 18.454 34.2621 18.7615 34.2122 18.8706C34.1722 18.9798 34.0324 19.327 33.9225 19.6345C33.6828 20.2694 33.3333 20.6067 32.9138 20.6067C32.6541 20.6067 31.2759 19.9519 30.9263 19.6642C30.7565 19.5254 29.4781 18.9202 28.8789 18.702C28.6591 18.6226 28.2596 18.4738 27.98 18.3845C27.7103 18.2853 27.3108 18.1465 27.1111 18.0671C26.6317 17.8885 24.3745 17.4124 23.985 17.4124C23.5056 17.4124 23.4557 17.4223 23.3957 17.5909C23.3158 17.7893 23.5955 18.6325 23.7852 18.7813C23.955 18.9103 24.4544 20.0809 24.744 21.0035C24.8539 21.3606 25.0536 21.8665 25.1835 22.1443C25.4332 22.6701 26.2122 25.9437 26.3021 26.8366C26.342 27.2929 26.3221 27.402 26.1123 27.6203C25.9925 27.7592 25.7927 27.9179 25.6829 27.9774C25.2734 28.1956 23.8152 28.3444 21.4881 28.394C19.3108 28.4536 17.583 28.5825 15.7253 28.8504C15.3558 28.9 14.8564 28.9397 14.6067 28.9397C14.0674 28.9397 13.8477 29.019 13.9076 29.1777C13.9376 29.2472 13.8876 29.3662 13.7977 29.4357C13.7178 29.5051 13.6479 29.6341 13.6479 29.7134C13.6479 29.9019 14.1173 30.3285 14.3171 30.3285C14.387 30.3285 14.4469 30.388 14.4469 30.4674C14.4469 30.6559 15.4657 31.6181 15.6654 31.6181C15.7753 31.6181 15.8452 31.6975 15.8452 31.8066C15.8452 31.9852 16.1848 32.3721 16.9039 33.0169C17.0637 33.1657 17.3932 33.5823 17.6429 33.9395C17.8926 34.3065 18.2721 34.7926 18.4919 35.0208C18.7116 35.2588 18.9513 35.5763 19.0312 35.7449C19.1111 35.9037 19.2409 36.1814 19.3308 36.36C19.4207 36.5485 19.6105 36.7766 19.7503 36.8858C19.9101 36.9949 20.0399 37.2032 20.0699 37.3917C20.0999 37.5703 20.1798 37.9472 20.2497 38.225C20.4095 38.8797 20.2597 39.2765 19.7203 39.6138C19.5106 39.7527 19.1311 40.0602 18.8914 40.2983C18.6517 40.5463 18.392 40.7447 18.3221 40.7447C18.1423 40.7546 17.5431 41.3102 17.5431 41.4788C17.5431 41.5582 17.3333 41.6971 17.0836 41.7963C16.8339 41.8856 16.4644 42.0939 16.2547 42.2328C16.0449 42.3816 15.7853 42.5403 15.6654 42.57C15.5555 42.6097 15.4257 42.7188 15.3957 42.8081C15.3258 43.0165 14.5468 43.6117 14.0374 43.8398C13.8177 43.9291 13.6479 44.068 13.6479 44.1474C13.6479 44.316 13.1086 44.7128 12.8689 44.7128C12.769 44.7128 12.6392 44.7624 12.5793 44.8219C12.5193 44.8815 12.3595 44.9906 12.2297 45.0501C12.0599 45.1394 12 45.2485 12 45.4965V45.8338L12.8989 46.062C14.5069 46.4588 15.216 46.5977 15.5955 46.5977C15.8652 46.5977 15.975 46.6473 16.015 46.7762C16.0349 46.8754 16.2647 47.054 16.5243 47.173C16.784 47.302 17.2634 47.5401 17.593 47.6988C17.9226 47.8575 18.2322 47.9865 18.2821 47.9865C18.362 47.9865 18.6117 48.1948 19.3308 48.8892C19.4706 49.0281 19.6904 49.1769 19.8102 49.2166C19.9301 49.2563 20.0599 49.3852 20.0999 49.5043C20.1698 49.7424 20.3895 50.0102 20.9488 50.5558C21.4282 51.032 21.598 51.5082 21.4781 52.0538C21.4282 52.3117 21.3083 52.52 21.1885 52.5895C20.5393 52.9466 19.6804 53.6906 18.0125 55.3572C16.1348 57.2421 15.7853 57.6686 15.8851 57.9861C15.9451 58.1547 16.784 58.6011 17.0537 58.6011C17.1336 58.6011 17.2834 58.6706 17.3833 58.7499C17.4931 58.8293 17.7927 58.9285 18.0624 58.9583C18.3221 58.9979 18.5418 59.0674 18.5418 59.117C18.5418 59.2261 18.7116 59.2955 20.6392 59.8908C22.9962 60.6249 22.9563 60.605 23.206 60.9721C23.4557 61.3391 23.4457 61.8649 23.176 62.3907C23.0961 62.5395 23.0362 62.7676 23.0362 62.8966C23.0362 63.0355 22.9663 63.3232 22.8864 63.5612C22.8065 63.7894 22.6866 64.2557 22.6267 64.6029C22.5668 64.9501 22.4569 65.2874 22.377 65.3568C22.2971 65.4163 22.2372 65.585 22.2372 65.7338C22.2372 65.8727 22.1872 66.1504 22.1373 66.3389C21.9975 66.7952 22.1173 67.5293 22.3271 67.5988C22.417 67.6186 22.5568 67.6781 22.6367 67.7178C22.7266 67.7674 23.6953 67.7575 24.804 67.698C25.9226 67.6484 27.131 67.6385 27.5006 67.6781C28.0998 67.7377 28.2097 67.7873 28.4993 68.1047L28.8289 68.4618V70.1582C28.8289 71.6562 28.8489 71.8843 29.0087 72.0133C29.2684 72.2414 29.7078 72.2811 30.2172 72.1224C31.5655 71.6859 31.7153 71.4181 31.2159 70.436C31.0362 70.0888 30.8164 69.7415 30.7265 69.682C30.6466 69.6126 30.5168 69.4539 30.4469 69.315C30.387 69.1761 30.2871 68.9975 30.2471 68.9182C29.7877 68.1146 28.779 65.8727 28.4794 64.9997C28.2796 64.4045 28.0299 63.7993 27.94 63.6604C27.8402 63.5216 27.6804 62.9859 27.5805 62.47C27.4906 61.9542 27.3208 61.101 27.2109 60.5852C27.1011 60.0693 26.9613 59.2856 26.8814 58.8491C26.8114 58.4126 26.6616 57.7678 26.5518 57.4107C26.1523 56.1608 26.1323 55.8929 26.1223 51.528C26.1023 46.3397 26.0923 46.6671 26.3121 46.3993C26.4619 46.2207 26.5218 46.2008 26.7515 46.2901L27.0212 46.3893L26.9613 48.3833C26.9013 50.3475 27.0012 52.1431 27.2509 53.6906C27.3208 54.0676 27.3807 54.8116 27.3907 55.3275C27.4207 56.6171 27.6005 58.1944 27.7702 58.7202C27.8501 58.9483 27.95 59.3352 27.99 59.5733C28.0299 59.8114 28.1098 60.0594 28.1797 60.1189C28.3196 60.2578 28.6691 61.5474 28.8389 62.5196C28.9488 63.1942 29.0387 63.4422 29.9275 65.6445C30.397 66.8052 30.4868 66.944 30.7166 66.9143C30.8264 66.8944 30.8863 66.9738 30.9063 67.1821C30.9263 67.3409 30.9862 67.5194 31.0362 67.5789C31.0861 67.6285 31.126 67.7277 31.126 67.8071C31.126 68.0551 31.7353 69.3249 32.0149 69.6423C32.0948 69.7415 32.2546 69.9697 32.3745 70.1483C32.9837 71.1403 33.2534 71.4974 33.3932 71.4974C33.4731 71.4974 33.7228 71.6562 33.9425 71.8446C34.1722 72.0331 34.5617 72.2613 34.8114 72.3605C35.0611 72.4498 35.3907 72.6482 35.5305 72.797C35.6703 72.9458 35.95 73.1144 36.1597 73.1739C36.3695 73.2235 36.6192 73.3426 36.709 73.422C36.7989 73.5013 37.1185 73.6303 37.4182 73.7196C38.1173 73.9279 38.8863 74.4834 39.0761 74.9199C39.2958 75.4556 39.156 76.0806 38.7065 76.6361C38.2671 77.1619 37.9874 77.3404 37.5879 77.3504C37.4281 77.3504 37.0986 77.4297 36.8389 77.5388C36.3495 77.7273 34.4019 78.3622 32.3745 78.9773C31.7153 79.1856 31.0861 79.384 30.9762 79.4336C30.2971 79.7213 28.5692 80.3463 27.98 80.5149C27.3907 80.6836 27.2209 80.7828 26.9812 81.1002C26.7915 81.3482 26.6317 81.4673 26.5218 81.4474C26.3221 81.3879 25.9325 81.8541 25.9325 82.1518C25.9325 82.2708 25.8626 82.6081 25.7827 82.9057C25.7028 83.2033 25.563 83.7886 25.4731 84.1953C25.3832 84.602 25.2634 85.0286 25.2035 85.1377C25.1036 85.3163 24.8639 86.1198 24.3745 87.8658C24.2946 88.1634 24.1847 88.6495 24.1348 88.9372C24.0849 89.2249 23.965 89.582 23.8651 89.7308C23.7653 89.8796 23.5555 90.4847 23.4057 91.0899C23.2559 91.6851 23.0861 92.3101 23.0462 92.4787C22.9962 92.6374 22.8764 93.0442 22.7865 93.3715C22.6966 93.6989 22.5568 94.0759 22.4669 94.2048C22.387 94.3338 22.2272 94.8596 22.1273 95.3655C22.0175 95.8714 21.7778 96.7543 21.598 97.3099C21.1286 98.7384 21.1585 99.036 21.8477 99.7006C22.1473 99.9883 22.5068 100.276 22.6567 100.355C22.7965 100.425 23.3558 100.911 23.8751 101.417C24.4045 101.923 24.9737 102.409 25.1335 102.498C25.3033 102.587 25.4332 102.697 25.4332 102.746C25.4332 102.935 26.4219 103.619 26.6217 103.57C26.7615 103.53 26.8514 103.609 26.9812 103.917C27.1211 104.234 27.2609 104.363 27.6704 104.542C27.95 104.671 28.4094 104.988 28.6791 105.256C29.2184 105.772 30.4369 106.615 30.6466 106.615C30.7166 106.615 30.8364 106.704 30.8963 106.804C30.9662 106.903 31.146 107.052 31.2958 107.131C31.4456 107.21 31.6654 107.319 31.7752 107.379C31.8851 107.438 32.2446 107.607 32.5742 107.746C32.9038 107.885 33.1735 108.053 33.1735 108.123C33.1735 108.272 33.7827 108.411 34.1523 108.341C34.3021 108.311 34.4219 108.222 34.4219 108.143C34.4219 108.063 34.4519 107.994 34.5018 107.994C34.5418 107.984 34.7016 107.964 34.8614 107.944C35.0212 107.925 35.2908 107.865 35.4606 107.805C35.7802 107.686 35.95 107.647 37.6678 107.319C38.8663 107.091 40.8539 106.913 42.2421 106.913C43.3707 106.913 45.7877 107.161 46.2571 107.319C46.5168 107.409 47.895 107.597 48.4443 107.607C48.704 107.617 49.2234 107.885 49.4031 108.103C49.533 108.262 50.3819 108.629 50.9512 108.768C51.3008 108.847 52.2496 109.333 52.3295 109.462C52.3694 109.532 52.5792 109.68 52.7789 109.78C52.9787 109.889 53.2883 110.117 53.4481 110.286C53.6179 110.464 53.8476 110.643 53.9774 110.692C54.0973 110.742 54.1971 110.841 54.1971 110.92C54.1971 111.01 54.327 111.139 54.4868 111.228C54.6466 111.307 54.8763 111.496 54.9961 111.645C55.116 111.793 55.3058 111.922 55.4256 111.922C55.5854 111.922 55.6453 111.982 55.6453 112.141C55.6453 112.26 55.7252 112.438 55.8051 112.537C56.0448 112.815 56.3944 113.45 56.3944 113.609C56.3944 113.688 56.5043 113.827 56.6341 113.916C56.9237 114.105 57.2933 114.68 57.2933 114.958C57.2933 115.057 57.4531 115.315 57.6428 115.533C58.0523 115.98 58.5317 116.129 58.8014 115.881C58.9612 115.732 58.9811 115.414 59.0111 112.041C59.0511 107.686 59.0311 107.766 59.9799 107.409C60.5392 107.21 60.679 107.2 64.0947 107.23C67.8301 107.26 67.8401 107.26 68.3494 107.746C68.4693 107.865 68.669 108.053 68.7989 108.173C68.9287 108.301 69.0785 108.401 69.1384 108.401C69.1984 108.401 69.508 108.669 69.8176 108.996C70.1372 109.323 70.4268 109.591 70.4668 109.591C70.6066 109.591 71.6752 110.782 71.6752 110.93C71.6752 111.01 71.7352 111.079 71.8051 111.079C71.875 111.079 72.0448 111.228 72.1746 111.407C72.3045 111.575 72.4942 111.783 72.5941 111.853C72.694 111.922 72.7739 112.071 72.7739 112.18C72.7739 112.289 72.9137 112.458 73.0935 112.567C73.3831 112.736 73.5629 112.994 73.8525 113.619C74.0123 113.946 75.1908 115.057 75.5404 115.206C76.1696 115.474 77.6677 115.305 78.1871 114.918C78.4268 114.74 78.7464 114.64 79.3956 114.551C80.0548 114.462 80.3444 114.373 80.5441 114.204L80.8138 113.976L80.7838 111.347C80.7539 109.026 80.7639 108.688 80.9137 108.46C81.0036 108.321 81.0535 108.173 81.0235 108.123C80.9436 107.994 81.2433 107.607 81.423 107.607C81.5029 107.607 81.6927 107.528 81.8325 107.428C82.0822 107.28 82.5017 107.26 86.2969 107.23C90.8512 107.2 90.9112 107.21 91.5803 107.766C91.9099 108.034 91.9798 108.053 92.1696 107.875C92.7788 107.3 93.6577 106.605 93.8874 106.516C94.4467 106.308 96.8337 106.456 97.3731 106.734C97.7026 106.903 98.4118 106.466 99.9898 105.097C100.269 104.849 100.729 104.542 101.018 104.393C101.298 104.254 101.598 104.046 101.658 103.937C101.728 103.827 101.857 103.738 101.937 103.738C102.017 103.738 102.307 103.48 102.567 103.163C103.555 101.982 103.515 102.052 103.435 101.506C103.196 99.9982 102.307 97.7364 101.518 96.6353C100.679 95.4647 100.499 95.0877 100.589 94.7405C100.649 94.4925 101.778 93.3219 101.957 93.3219C102.047 93.3219 103.206 92.2605 104.294 91.1792C105.133 90.3558 105.533 89.8598 105.932 89.1654C106.022 89.0265 106.342 88.6693 106.651 88.3717C106.971 88.084 107.251 87.7567 107.281 87.6575C107.321 87.5484 107.51 87.3797 107.71 87.2805C108.969 86.6357 109.288 86.4472 109.638 86.1298C109.857 85.9413 110.087 85.7826 110.167 85.7826C110.327 85.7826 110.956 85.1179 111.395 84.4929C111.565 84.2449 111.785 83.7291 111.875 83.362C112.185 82.122 111.925 81.12 111.036 80.1082C110.706 79.7411 110.606 79.5427 110.567 79.1658C110.497 78.5904 110.746 76.5964 111.016 75.5647C111.525 73.6104 111.565 72.7474 111.216 70.8526C110.926 69.2455 110.846 68.3626 110.826 66.4381C110.806 64.2953 110.596 63.1644 110.087 62.5593C109.947 62.3907 109.827 62.2022 109.827 62.1427C109.827 61.8252 109.318 60.9721 109.078 60.8828C108.939 60.8332 108.829 60.7141 108.829 60.6149C108.829 60.5157 108.699 60.1685 108.539 59.8412C108.369 59.5138 108.16 59.0376 108.06 58.7797C107.96 58.5119 107.82 58.3035 107.75 58.3035C107.68 58.3035 107.51 58.0654 107.371 57.7778C107.031 57.0635 106.552 56.3294 106.102 55.8334C105.902 55.6151 105.733 55.3572 105.733 55.2779C105.733 55.1985 105.473 54.8513 105.153 54.514C104.834 54.1668 104.384 53.6311 104.145 53.3236C103.915 53.0061 103.635 52.7284 103.535 52.6986C103.425 52.6688 103.316 52.5498 103.286 52.4506C103.216 52.2224 102.167 51.2602 101.997 51.2602C101.927 51.2602 101.658 51.151 101.378 51.0221C101.108 50.8832 100.689 50.7245 100.439 50.665C100.05 50.5657 99.5403 50.3475 99.041 50.0598C98.9611 50.0102 98.7413 49.911 98.5716 49.8317C98.3918 49.7523 98.242 49.6432 98.242 49.5836C98.242 49.534 98.0422 49.3952 97.7925 49.286C96.8637 48.8595 96.4842 48.7007 96.2445 48.6313C96.1046 48.5916 95.6552 48.4131 95.2457 48.2345C93.5479 47.5004 90.7713 47.1334 87.6053 47.2226C85.7576 47.2722 84.9686 47.3814 81.9124 47.9865C80.8338 48.1948 77.1784 49.3654 76.9187 49.5836C76.8088 49.6729 76.2196 49.9904 75.6203 50.288C75.0111 50.5757 74.4218 50.903 74.3219 50.9923C73.9923 51.2899 73.1434 51.9149 72.9037 52.0439C72.7739 52.1034 72.674 52.2125 72.674 52.2819C72.674 52.3514 72.4043 52.6192 72.0847 52.8871C71.7651 53.145 71.2757 53.6311 71.0161 53.9485C70.7464 54.266 70.4867 54.5338 70.4468 54.5338C70.317 54.5338 69.8775 55.0497 69.8775 55.1985C69.8775 55.2679 69.7477 55.5159 69.5779 55.7441C69.4181 55.9624 69.2783 56.2302 69.2783 56.3294C69.2783 56.5377 69.1185 56.6667 69.0286 56.5179C68.9287 56.3691 68.5192 56.7262 67.9899 57.4206C67.7402 57.7579 67.3806 58.2142 67.2108 58.4424C67.0311 58.6607 66.8014 58.9979 66.7115 59.1666C66.6216 59.3452 66.4718 59.5138 66.3719 59.5436C66.1821 59.6031 65.6828 60.2777 65.6828 60.4761C65.6828 60.5356 65.5929 60.7637 65.493 60.9621C64.6241 62.6287 64.4843 63.1744 64.4843 65.0394C64.4843 66.0512 64.4543 66.2199 64.0947 67.2714C63.875 67.8964 63.6353 68.561 63.5454 68.7396C63.4655 68.9182 63.3257 69.3348 63.2458 69.6622C63.1559 69.9896 63.0061 70.4756 62.8962 70.7534C62.6565 71.3883 62.5467 72.7771 62.6765 73.4716C62.7964 74.0767 63.2059 75.029 63.5954 75.6143C63.7352 75.8326 64.0448 76.3683 64.2845 76.8048C64.5142 77.2412 64.8039 77.6877 64.9337 77.8067C65.3731 78.2134 65.3432 79.6419 64.8937 79.8106C64.654 79.8899 63.885 80.7034 63.885 80.872C63.885 80.9613 63.8351 81.1101 63.7652 81.2193C63.6653 81.3681 63.6653 81.4772 63.7652 81.745C63.8351 81.9434 63.885 82.6279 63.885 83.491C63.885 84.7211 63.915 84.9493 64.0947 85.3163C64.3944 85.9016 64.7639 86.3778 64.9337 86.3778C65.0136 86.3778 65.2233 86.4373 65.4031 86.5167C67.0211 87.2111 67.101 87.2309 67.5205 87.0325C67.9499 86.8341 67.9599 86.6853 67.6303 86.0008C67.4905 85.723 67.2907 85.1675 67.1709 84.7707C66.7814 83.4215 66.7814 83.3918 67.5005 83.362C67.7901 83.3422 67.91 83.3819 67.9499 83.491C67.9699 83.5803 68.0298 83.7191 68.0698 83.7985C68.1097 83.8779 68.1996 84.1953 68.2695 84.4929C68.3394 84.7905 68.4793 85.3064 68.5791 85.6338C68.689 85.9611 68.7989 86.3976 68.8288 86.596C68.8588 86.8143 68.9686 87.0127 69.0785 87.0722C69.1784 87.1218 69.2882 87.2904 69.3282 87.4392C69.3582 87.598 69.488 87.8757 69.6078 88.0741C70.0073 88.7289 71.6752 90.8518 72.0548 91.1692C72.2545 91.3478 72.5142 91.576 72.6241 91.695C72.8238 91.8934 74.0722 92.7366 74.5716 93.0045C74.7114 93.0739 74.9911 93.2723 75.2108 93.441C75.4206 93.6096 75.9099 93.8675 76.3094 94.0163C76.7489 94.185 77.0585 94.3636 77.1284 94.5024C77.1883 94.6116 77.2682 94.681 77.2982 94.6413C77.3382 94.6116 77.468 94.6711 77.5978 94.7802C77.7177 94.8992 78.0073 95.0183 78.247 95.058C78.4767 95.0976 78.9062 95.2167 79.1958 95.3258C79.4755 95.4349 79.845 95.554 79.9948 95.5738C80.1546 95.6036 80.3444 95.7325 80.4243 95.8516C80.5941 96.1194 81.0535 96.2484 82.5516 96.4567C83.1309 96.5361 83.9199 96.6452 84.2894 96.6948C84.669 96.7444 85.0085 96.8139 85.0485 96.8337C85.2083 96.9329 86.6565 97.1908 87.6852 97.2999C88.7439 97.4091 88.7738 97.3991 89.0035 97.1908C89.2732 96.9428 89.9024 96.9428 89.9024 97.1908C89.9024 97.2702 89.9424 97.4388 89.9823 97.5579C90.1921 98.1332 89.5129 98.3812 88.2245 98.1928C87.825 98.1332 86.7164 98.044 85.7576 97.9944C84.7988 97.9448 83.4006 97.8059 82.6615 97.6868C81.9224 97.5678 81.1734 97.4487 81.0036 97.4289C80.7938 97.3991 80.664 97.3198 80.634 97.1908C80.5941 97.0321 80.4942 96.9924 80.1446 96.9924C79.9149 96.9825 79.5354 96.923 79.3157 96.8436C79.096 96.7642 78.8063 96.6948 78.6665 96.6948C78.5367 96.6948 78.247 96.6353 78.0173 96.5559C77.0685 96.2385 75.6003 96.0202 75.1409 96.1393C75.0011 96.169 74.8513 96.298 74.8113 96.417C74.7814 96.5361 74.6116 96.8535 74.4518 97.1115C74.1422 97.6075 73.3731 99.661 73.3731 99.9784C73.3731 100.078 73.2932 100.177 73.1933 100.207C73.0935 100.246 72.9037 100.504 72.7839 100.792C72.654 101.07 72.4343 101.576 72.2745 101.903C71.855 102.816 71.6952 103.302 71.4755 104.433C71.2058 105.762 71.1958 105.802 70.9761 105.921C70.8762 105.97 70.3969 106.06 69.8975 106.119C68.4593 106.278 68.1896 106.079 67.7402 104.532C67.6503 104.234 67.5105 103.629 67.4206 103.193C67.091 101.576 66.1622 98.0737 65.5329 96.0996C65.4031 95.6929 65.2433 95.1572 65.1834 94.9092C65.1235 94.6612 64.9936 94.2644 64.8937 94.0163C64.7839 93.7683 64.6441 93.3021 64.5841 92.9747C64.4243 92.191 64.0947 90.9411 63.9849 90.6931C63.9349 90.5839 63.865 90.3161 63.8351 90.0979C63.7951 89.8796 63.7052 89.6316 63.6253 89.5423C63.5454 89.453 63.4156 89.1455 63.3257 88.8479C63.2458 88.5503 63.116 88.084 63.0361 87.8162C62.9562 87.5384 62.7664 86.8242 62.6066 86.229C62.4468 85.6238 62.2471 84.9989 62.1572 84.8203C62.0673 84.6417 61.9874 84.4334 61.9874 84.354C61.9874 84.1755 61.3582 82.2014 61.1484 81.6954C61.0585 81.4871 60.9087 81.2788 60.7989 81.2292C60.699 81.1697 60.5891 81.0208 60.5592 80.9018C60.4893 80.624 60.0798 80.376 59.5404 80.2868C58.8613 80.1677 57.4531 79.8304 57.2833 79.7312C57.1934 79.6816 56.9437 79.6122 56.734 79.5725C56.5142 79.5427 56.2646 79.4634 56.1747 79.4138C56.0149 79.3344 55.7053 79.255 54.8463 79.0864C54.4568 79.007 52.3495 78.3622 51.9 78.1936C51.7103 78.1142 51.131 77.9555 50.6216 77.8365C49.7627 77.6281 49.6628 77.5785 49.4431 77.2611C49.2334 76.9436 49.2034 76.8048 49.2034 75.9119C49.2034 75.1778 49.2433 74.8604 49.3532 74.7017C49.523 74.4636 50.4718 73.9576 50.9512 73.8386C51.5505 73.6898 52.6691 72.9656 53.478 72.2018C53.9275 71.7752 54.297 71.3982 54.297 71.3585C54.297 71.3189 54.4468 71.1403 54.6266 70.9617C54.7964 70.7832 55.136 70.436 55.3657 70.1979C56.0748 69.4638 56.4543 69.2356 57.0735 69.1662C58.0423 69.0571 58.6915 68.8487 58.9412 68.5809C59.081 68.4321 59.2908 68.323 59.4306 68.323C59.7202 68.323 59.93 68.0154 59.8401 67.7277C59.8101 67.6186 59.5704 67.3111 59.3107 67.0432C59.0511 66.7754 58.7315 66.3687 58.5916 66.1405C58.4518 65.9123 58.2421 65.6147 58.1122 65.4659C57.8526 65.1683 57.7627 64.8906 57.8126 64.4937C57.8326 64.2557 57.9425 64.1565 58.3919 63.9382C58.9412 63.6704 60.3994 63.3628 61.1384 63.3628C61.478 63.3628 61.5779 63.3132 61.8176 63.0156C61.9774 62.8172 62.1372 62.6883 62.1971 62.718C62.3669 62.8272 62.4168 62.4799 62.267 62.2419C62.1072 62.0137 61.7177 60.8729 61.5779 60.2876C61.5379 60.0991 61.4381 59.7618 61.3482 59.5436C60.9187 58.4226 61.2982 57.7976 62.6865 57.3512C64.724 56.7064 64.9137 56.6369 65.6628 56.1905C66.0123 55.9921 66.3719 55.8235 66.4718 55.8235C66.8912 55.8235 67.3906 54.8314 67.1709 54.4247C67.121 54.3255 66.8413 54.1172 66.5417 53.9386C66.2421 53.77 65.9824 53.6013 65.9624 53.5617C65.9424 53.522 65.493 53.2938 64.9637 53.0557C64.4243 52.8176 63.915 52.5399 63.8251 52.4407C63.7352 52.3315 63.6054 52.2522 63.5554 52.2522C63.4955 52.2522 63.1959 52.024 62.8763 51.7562C62.5567 51.4784 62.267 51.2602 62.2171 51.2602C62.1771 51.2602 61.9474 51.0419 61.7177 50.7741C61.1784 50.159 61.1484 49.8019 61.5979 49.4348C61.7677 49.296 62.0273 49.1472 62.1672 49.1174C63.5954 48.79 64.5342 48.4726 64.7339 48.2444C64.8238 48.1254 64.9836 48.0758 66.0823 47.7881C66.322 47.7186 66.7514 47.5599 67.0311 47.421C67.3007 47.2822 67.6703 47.1433 67.8301 47.1036C68.0198 47.054 68.1297 46.9746 68.1197 46.8754C68.1097 46.7663 68.2495 46.677 68.5691 46.5977C69.1284 46.4588 70.6465 45.7148 71.3257 45.2485C71.5953 45.0699 71.865 44.9112 71.9249 44.9112C72.0548 44.9112 72.3744 44.3954 72.3744 44.187C72.3744 44.1077 72.2745 43.9787 72.1546 43.8994C71.7751 43.6613 70.6765 43.2248 70.4668 43.2248C70.1971 43.2248 69.518 42.8677 69.448 42.699C69.4181 42.6196 69.2183 42.5304 69.0086 42.4907C68.7989 42.451 68.4293 42.3419 68.1796 42.2427C67.9299 42.1435 67.3906 41.9352 66.9811 41.7863C66.5716 41.6375 66.1821 41.459 66.1322 41.3895C66.0723 41.3201 65.6927 41.1217 65.2833 40.953C64.4643 40.6058 64.1547 40.338 64.2545 40.0701C64.3844 39.713 64.8138 39.1575 64.9936 39.1079C65.1035 39.0682 65.2533 38.8996 65.3432 38.7309C65.5729 38.2845 65.9724 37.8877 66.3619 37.7191C66.5317 37.6397 66.6815 37.5207 66.6815 37.4512C66.6815 37.2826 67.4306 36.5683 67.85 36.3203C68.0298 36.2211 68.1796 36.0525 68.1996 35.9433C68.2196 35.8144 68.4193 35.6457 68.7789 35.4672C69.0785 35.3184 69.5679 34.9811 69.8575 34.7232C70.7963 33.8799 71.3756 33.2748 71.3756 33.1558C71.3756 33.0863 71.4455 32.9772 71.5254 32.9077C71.9749 32.5407 71.3856 32.1141 70.2271 31.9653C69.8975 31.9256 69.5879 31.8661 69.5279 31.8165C69.478 31.7768 68.9587 31.7173 68.3794 31.6776C67.8001 31.6479 67.111 31.5685 66.8313 31.5189C66.5617 31.4594 65.3931 31.2808 64.2446 31.1122C61.8875 30.765 61.6977 30.6955 61.6878 30.1102C61.6878 29.9118 61.7277 29.7234 61.7776 29.6936C61.8276 29.6638 61.8975 29.4754 61.9275 29.2869C61.9674 29.0984 62.0773 28.9 62.1871 28.8405C62.287 28.7909 62.5167 28.4436 62.7065 28.0865C63.2458 26.9953 63.3457 26.8366 63.5155 26.7076C63.6853 26.5886 64.3744 25.3089 64.3844 25.1105C64.3844 24.9517 64.8638 24.1184 65.0336 23.9795C65.1135 23.9101 65.1834 23.8208 65.1834 23.7811C65.1834 23.7315 65.3432 23.424 65.5329 23.0768C65.7327 22.7395 65.8725 22.4022 65.8426 22.3427C65.8226 22.2733 66.0223 22.0054 66.292 21.7376C66.7814 21.2614 66.9811 20.8348 66.9811 20.2793C66.9811 20.0313 66.9512 20.0115 66.6016 20.0115C66.3919 20.0115 65.9025 20.1206 65.523 20.2495C65.1434 20.3785 64.5642 20.5571 64.2346 20.6463C63.905 20.7257 63.3557 20.934 63.0061 21.1027C62.6665 21.2614 62.307 21.4003 62.2071 21.4003C62.1172 21.4003 61.8775 21.4796 61.6778 21.5888C61.488 21.688 60.9687 21.8765 60.5392 21.9955C60.0997 22.1145 59.4905 22.3229 59.1909 22.4717C58.8513 22.6304 58.4019 22.7395 58.0323 22.7693C57.483 22.809 57.4031 22.7891 57.2633 22.5808C57.1734 22.4618 57.0536 22.1046 56.9837 21.807C56.9237 21.4995 56.8338 21.1622 56.7839 21.0531C56.744 20.944 56.6341 20.5868 56.5542 20.2595C56.0548 18.2556 55.9749 17.2338 55.9549 12.73C55.945 10.2202 55.925 9.85314 55.7852 9.76386C55.5654 9.6349 55.1759 9.74402 54.8164 10.0416C54.6566 10.1706 54.0573 10.5178 53.488 10.8055C52.9187 11.0832 52.2096 11.5297 51.92 11.7876C51.6204 12.0455 51.2608 12.2737 51.121 12.3134C50.9612 12.3431 50.7415 12.5217 50.5817 12.7498C50.4418 12.9582 50.1023 13.2359 49.8426 13.3649C49.5829 13.5038 49.1834 13.8014 48.9437 14.0296C48.714 14.2676 48.4843 14.4561 48.4443 14.4561C48.2746 14.4561 46.1173 16.7477 46.0873 16.9461C46.0673 17.0651 45.9675 17.2139 45.8576 17.2735C45.7477 17.333 45.508 17.5116 45.3183 17.6703C45.0386 17.8984 44.9088 17.9381 44.6092 17.8984C44.2097 17.8488 43.5105 17.2536 43.5105 16.9759C43.5105 16.8965 43.3208 16.6386 43.0811 16.4005C42.8514 16.1624 42.5917 15.845 42.5118 15.6862C42.2521 15.1704 41.7028 14.4561 41.563 14.4561C41.4831 14.4561 41.3932 14.3569 41.3632 14.228C41.2434 13.8411 40.5243 12.9681 40.3145 12.9681C40.1947 12.9681 40.1148 12.8788 40.0648 12.6804C40.0349 12.5316 39.8551 12.2737 39.6653 12.115C39.4756 11.9562 39.2958 11.7082 39.2559 11.5495C39.2259 11.3908 39.0961 11.2221 38.9762 11.1626C38.8464 11.113 38.5767 10.8352 38.357 10.5575C37.8177 9.84322 36.9188 9 36.709 9C36.6092 9 36.4993 9.0496 36.4594 9.10912ZM38.1672 37.3123C38.2771 37.4512 38.5667 37.6199 38.8064 37.6893C39.136 37.7885 39.4756 38.0464 40.1647 38.7111C40.9837 39.5047 41.1135 39.6733 41.2534 40.1694C41.3432 40.4769 41.4132 40.7943 41.4132 40.8836C41.4132 40.963 41.503 41.082 41.6129 41.1415C41.7927 41.2407 41.8127 41.3499 41.8127 42.3617C41.8027 44.197 41.6129 45.1096 41.1235 45.5461C40.8938 45.7544 40.3145 45.7247 39.6554 45.4767C38.2172 44.9311 34.1622 44.9311 31.8152 45.4767C30.6267 45.7445 30.1373 45.3973 29.9375 44.1374C29.6479 42.3121 29.9275 41.0523 30.9463 39.594C31.4257 38.9095 31.965 38.4036 32.5443 38.0762C32.8639 37.8976 33.1435 37.7191 33.1735 37.6595C33.2134 37.6099 33.3333 37.5703 33.4431 37.5703C33.563 37.5703 33.7627 37.471 33.8926 37.352C34.2322 37.0445 34.7016 36.975 36.4194 37.0246C37.9075 37.0742 37.9775 37.0842 38.1672 37.3123ZM50.7515 39.6535C50.9712 39.7031 51.5105 39.7725 51.95 39.8023C52.5392 39.8519 52.7989 39.9114 52.9487 40.0503C53.0586 40.1594 53.4081 40.3082 53.7277 40.3876C54.0573 40.4769 54.5367 40.6951 54.8064 40.8935C55.076 41.082 55.3657 41.2407 55.4456 41.2407C55.5255 41.2407 55.5954 41.2903 55.5954 41.3499C55.5954 41.4094 55.7352 41.6177 55.905 41.8161C56.3844 42.3617 56.4943 42.7188 56.4943 43.7704C56.4943 45.2882 56.1447 46.1016 55.4955 46.1016C55.3457 46.1016 54.8563 45.9231 54.4169 45.7048C53.9774 45.4866 53.538 45.308 53.4381 45.308C53.3282 45.308 52.7989 45.2187 52.2496 45.1195C50.6116 44.8021 49.533 44.7128 47.5654 44.7128C45.568 44.7128 45.1285 44.6335 44.9088 44.2168C44.739 43.8994 44.729 41.6871 44.8888 41.1415C45.1585 40.2686 46.0274 39.713 47.3158 39.5841C48.2945 39.4849 50.1822 39.5245 50.7515 39.6535ZM84.3893 67.1325C84.4792 67.1325 84.5591 67.1821 84.5591 67.2317C84.5591 67.3905 85.3681 68.1246 85.5379 68.1246C85.7376 68.1246 85.9474 68.4222 85.9574 68.7098C85.9574 68.8388 86.0972 69.4241 86.267 69.9995C86.7963 71.7653 86.9361 72.8962 86.7663 74.0965C86.6065 75.1778 86.3968 75.9318 86.1172 76.3583C85.9873 76.5468 85.8575 76.8246 85.8275 76.9635C85.7876 77.1123 85.6577 77.2908 85.5279 77.3801C85.3981 77.4595 85.1484 77.7472 84.9786 78.015C84.8088 78.2729 84.5192 78.5904 84.3394 78.6995C82.8712 79.6618 81.5329 80.2967 80.6041 80.4852C79.6153 80.6935 77.2583 80.634 76.3893 80.386C75.5104 80.1379 73.473 78.8582 72.8837 78.2035C72.7439 78.0448 72.3844 77.6777 72.1047 77.3801C71.8151 77.0924 71.5754 76.8147 71.5754 76.7651C71.5754 76.7155 71.4655 76.4575 71.3257 76.1897C71.0161 75.5945 70.8762 74.9298 70.8063 73.6005C70.7464 72.4498 70.8463 72.0629 71.2658 71.8546C71.4455 71.7653 72.2046 71.7058 73.6727 71.6661C75.3007 71.6165 76.0598 71.547 76.8188 71.3883C77.3681 71.2693 78.0672 71.1304 78.3669 71.0609C78.6665 71.0014 79.0161 70.8923 79.1359 70.8229C79.3257 70.7137 79.6553 70.6145 80.9137 70.2772C81.3831 70.1582 81.7227 69.9201 82.282 69.3348C82.5117 69.1067 82.7514 68.9182 82.8213 68.9182C82.9511 68.9182 83.4105 68.0055 83.5304 67.5393C83.6203 67.1623 83.7701 67.0135 83.9998 67.073C84.1197 67.1028 84.2894 67.1325 84.3893 67.1325ZM93.0784 67.9857C93.3381 68.2932 93.5479 68.6305 93.5479 68.7297C93.5479 68.8289 93.5878 68.9182 93.6278 68.9182C93.6777 68.9182 93.8375 69.0174 93.9773 69.1463C94.2969 69.4142 94.8063 69.6721 95.1758 69.7515C95.3256 69.7911 95.4455 69.8804 95.4455 69.9598C95.4455 70.0987 96.0247 70.4161 96.4942 70.5352C96.604 70.5649 96.9436 70.6741 97.2432 70.7832C98.9311 71.3883 101.688 71.7454 103.905 71.6462C105.383 71.5867 105.423 71.5867 105.623 71.805C105.912 72.1125 105.962 72.4895 105.842 73.5807C105.693 75.0191 105.393 75.9913 104.964 76.4675C104.834 76.6063 104.734 76.7651 104.734 76.8246C104.734 76.9932 103.356 78.3523 102.876 78.6598C102.157 79.1162 100.819 79.7015 99.9698 79.9197C99.3306 80.0784 98.8512 80.128 97.8225 80.128C97.0934 80.128 96.3344 80.0784 96.1446 80.0288C95.9548 79.9693 95.5553 79.88 95.2557 79.8304C94.9561 79.7808 94.6165 79.6519 94.5066 79.5527C94.3868 79.4535 94.0073 79.1955 93.6477 78.9773C92.8288 78.4912 91.5104 77.1817 91.031 76.3683C90.5716 75.5945 90.202 74.5529 90.0522 73.6005C89.8225 72.1621 90.3119 70.2872 91.3107 68.7694C91.5404 68.4222 92.4492 67.4301 92.5391 67.4301C92.5791 67.4301 92.8188 67.6781 93.0784 67.9857ZM51.91 79.2352C52.0099 79.2947 52.0998 79.4237 52.0998 79.513C52.0998 79.6122 52.3495 79.9296 52.6491 80.2272C52.9487 80.5248 53.1984 80.8026 53.1984 80.8522C53.1984 81.0208 54.4368 82.9255 54.6066 83.0049C54.6965 83.0545 54.8064 83.2628 54.8463 83.4711C54.9362 83.9572 55.1659 84.3937 55.4556 84.6219C55.5854 84.7211 55.6953 84.86 55.6953 84.9294C55.6953 84.9989 55.8051 85.227 55.945 85.4254C56.0848 85.6238 56.1946 85.852 56.1946 85.9314C56.1946 86.2686 56.5342 87.0424 56.8039 87.3202C56.9637 87.4888 57.0935 87.6674 57.0935 87.7269C57.0935 87.7765 57.2234 88.0642 57.3732 88.3618C57.523 88.6594 57.7028 89.0959 57.7727 89.3142C57.8426 89.5522 58.0024 89.8002 58.1422 89.8895C58.302 89.9887 58.3919 90.1475 58.3919 90.3062C58.3919 90.4451 58.4718 90.7625 58.5817 91.0204C58.6815 91.2784 58.8613 91.8141 58.9811 92.2009C59.101 92.5978 59.3107 93.0442 59.4306 93.193C59.8201 93.6592 59.9999 94.2147 60.0598 95.1671C60.1397 96.4468 60.0498 96.6452 58.8713 97.8257C58.332 98.3713 57.8925 98.8376 57.8925 98.8673C57.8925 98.907 57.523 99.2443 57.0735 99.6213C55.6054 100.871 55.6853 100.772 55.8451 101.228C55.925 101.457 56.1247 101.853 56.2945 102.111C56.4543 102.369 56.5941 102.637 56.5941 102.706C56.5941 102.776 56.6541 102.845 56.724 102.865C56.7939 102.885 57.1135 103.183 57.4431 103.54C57.7627 103.897 58.1122 104.214 58.2221 104.254C58.322 104.294 58.6016 104.462 58.8413 104.631C59.081 104.79 59.3607 104.929 59.4705 104.929C59.6703 104.929 59.89 105.345 59.89 105.732C59.89 106.248 58.9412 106.337 58.4918 105.871C58.3619 105.732 58.1722 105.623 58.0723 105.623C57.9624 105.623 57.8925 105.554 57.8925 105.435C57.8925 105.216 56.9936 104.413 56.6641 104.333C56.5442 104.304 56.4343 104.185 56.4144 104.085C56.3744 103.857 55.6054 103.242 55.3657 103.242C55.1559 103.242 54.7964 102.945 54.7964 102.776C54.7964 102.706 54.6666 102.508 54.5068 102.329C54.3569 102.151 54.1572 101.873 54.0673 101.705C53.9275 101.437 53.9275 101.377 54.0673 101.109C54.2171 100.832 55.6753 99.3733 55.8151 99.3733C55.8451 99.3733 56.0348 99.1352 56.2346 98.8376C56.4244 98.5499 56.694 98.2324 56.8338 98.1432C57.1734 97.9249 57.7926 97.3099 57.7926 97.1809C57.7926 97.1313 57.9025 97.0321 58.0423 96.9726C58.3619 96.8238 58.7015 96.2881 58.8014 95.7623C58.9312 95.0679 58.5217 93.5799 57.9125 92.5085C57.7427 92.191 57.5929 91.9033 57.5929 91.8537C57.5929 91.6851 56.8738 90.1276 56.6341 89.7804C56.5043 89.582 56.3445 89.2447 56.2845 89.0166C56.1147 88.4015 55.6054 87.2904 55.2858 86.844C55.126 86.6258 54.9961 86.3778 54.9961 86.3083C54.9961 86.229 54.9162 86.0405 54.8164 85.9016C54.6466 85.6536 53.2683 83.0743 52.9088 82.3303C52.8289 82.1617 52.699 82.0129 52.6191 82.0129C52.5492 82.0129 52.3295 81.6657 52.1297 81.2391C51.93 80.8224 51.6603 80.3066 51.5405 80.1082C51.091 79.4039 51.3008 78.9178 51.91 79.2352Z" fill="#424242"/>
</svg>
