<svg width="36" height="36" viewBox="0 0 36 36" fill="none" xmlns="http://www.w3.org/2000/svg">
<path d="M11 12.5C11 12.25 11.2188 12 11.5 12H24.5C24.75 12 25 12.25 25 12.5C25 12.7812 24.75 13 24.5 13H11.5C11.2188 13 11 12.7812 11 12.5ZM11 17.5C11 17.25 11.2188 17 11.5 17H24.5C24.75 17 25 17.25 25 17.5C25 17.7812 24.75 18 24.5 18H11.5C11.2188 18 11 17.7812 11 17.5ZM24.5 23H11.5C11.2188 23 11 22.7812 11 22.5C11 22.25 11.2188 22 11.5 22H24.5C24.75 22 25 22.25 25 22.5C25 22.7812 24.75 23 24.5 23Z" fill="#424242"/>
</svg>
