<svg width="36" height="36" viewBox="0 0 36 36" fill="none" xmlns="http://www.w3.org/2000/svg">
<path d="M23.875 24.1875C24.0312 24.4062 24.0312 24.7188 23.8125 24.9062C23.7188 24.9688 23.5938 25 23.5 25C23.3438 25 23.1875 24.9688 23.0938 24.8438L18 18.7812L12.875 24.8438C12.7812 24.9688 12.625 25 12.4688 25C12.375 25 12.25 24.9688 12.1562 24.9062C11.9375 24.7188 11.9375 24.4062 12.0938 24.1875L17.3125 18L12.0938 11.8438C11.9375 11.625 11.9375 11.3125 12.1562 11.125C12.375 10.9688 12.6875 10.9688 12.875 11.1875L18 17.25L23.0938 11.1875C23.2812 10.9688 23.5938 10.9688 23.8125 11.125C24.0312 11.3125 24.0312 11.625 23.875 11.8438L18.6562 18L23.875 24.1875Z" fill="#fff"/>
</svg>
